#!OML:ASF G:\JayActor3\Patient Classification 1\Patient 1\Session 6\male.ASF
:FULLY-SPECIFIED
:DEGREES
1735
root 5.25901 16.3069 -23.8296 527.506 -74.7968 -527.387
lowerback 0.917972 -0.835806 4.31525
upperback -0.599132 -1.07326 2.23841
thorax -1.16542 -0.579421 -0.0993667
lowerneck -4.9937 -2.19326 1.62805
upperneck 24.4642 -1.70374 -11.8939
head 8.22591 -2.21875 -4.501
rclavicle -2.85753e-014 4.01545e-014
rhumerus -19.5558 15.574 -65.4655
rradius 85.7571
rwrist 12.7916
rhand -61.5852 9.9693
rfingers 7.12502
rthumb -33.6597 -16.8894
lclavicle -2.85753e-014 4.01545e-014
lhumerus -23.9354 -5.39671 75.7975
lradius 95.4968
lwrist 12.6499
lhand -50.2199 -21.2106
lfingers 7.12502
lthumb -22.8001 7.46194
rfemur -12.5955 -4.61093 27.8109
rtibia 35.7656
rfoot -28.9581 -14.4669
rtoes 11.4114
lfemur -6.72091 10.4452 -17.1496
ltibia 28.6322
lfoot -21.4606 12.2854
ltoes -0.372947
1736
root 5.24824 16.3073 -23.816 527.488 -74.6833 -527.343
lowerback 0.886282 -0.830914 4.34231
upperback -0.619536 -1.06837 2.27399
thorax -1.16824 -0.577848 -0.0783205
lowerneck -4.9442 -2.19321 1.68329
upperneck 24.1956 -1.71792 -11.8708
head 8.12362 -2.20275 -4.48826
rclavicle 9.31803e-016 1.94809e-014
rhumerus -19.5751 15.2548 -65.634
rradius 85.8942
rwrist 12.8047
rhand -61.588 10.1793
rfingers 7.12502
rthumb -33.6623 -16.6787
lclavicle 9.31803e-016 1.94809e-014
lhumerus -24.0679 -5.3586 75.947
lradius 95.6064
lwrist 12.6122
lhand -50.2299 -21.2701
lfingers 7.12502
lthumb -22.8097 7.4012
rfemur -12.6155 -4.47169 27.8068
rtibia 35.7956
rfoot -28.9408 -14.5735
rtoes 11.2491
lfemur -6.6763 10.4167 -17.1918
ltibia 28.5914
lfoot -21.5238 12.434
ltoes -0.334312
1737
root 5.23762 16.3077 -23.8025 527.461 -74.5675 -527.295
lowerback 0.861473 -0.822335 4.37102
upperback -0.641275 -1.05807 2.30838
thorax -1.17618 -0.573688 -0.0593897
lowerneck -4.8772 -2.19543 1.7336
upperneck 23.9077 -1.73761 -11.8371
head 8.0118 -2.18758 -4.47022
rclavicle 4.00675e-014 2.42517e-014
rhumerus -19.6048 14.9432 -65.7995
rradius 86.0324
rwrist 12.8162
rhand -61.5531 10.4044
rfingers 7.12502
rthumb -33.6291 -16.4609
lclavicle 4.00675e-014 2.42517e-014
lhumerus -24.2002 -5.33146 76.102
lradius 95.7159
lwrist 12.5788
lhand -50.2346 -21.3116
lfingers 7.12502
lthumb -22.8142 7.35912
rfemur -12.6292 -4.31696 27.8059
rtibia 35.8239
rfoot -28.9384 -14.6759
rtoes 11.1387
lfemur -6.63021 10.3866 -17.2311
ltibia 28.5554
lfoot -21.5885 12.5809
ltoes -0.283695
1738
root 5.22705 16.3081 -23.789 527.45 -74.4551 -527.27
lowerback 0.84425 -0.81056 4.39557
upperback -0.664379 -1.04293 2.33788
thorax -1.18964 -0.567142 -0.0431213
lowerneck -4.79458 -2.20001 1.78352
upperneck 23.6003 -1.76304 -11.7938
head 7.89078 -2.17307 -4.44813
rclavicle 1.32937e-014 5.12864e-014
rhumerus -19.6476 14.6374 -65.9649
rradius 86.1783
rwrist 12.8242
rhand -61.5392 10.5823
rfingers 7.12502
rthumb -33.6159 -16.2859
lclavicle 1.32937e-014 5.12864e-014
lhumerus -24.3289 -5.32018 76.261
lradius 95.8227
lwrist 12.5559
lhand -50.2408 -21.3467
lfingers 7.12502
lthumb -22.8202 7.3233
rfemur -12.6361 -4.1612 27.7972
rtibia 35.8522
rfoot -28.941 -14.7723
rtoes 11.0362
lfemur -6.58002 10.3584 -17.2757
ltibia 28.5218
lfoot -21.6493 12.7217
ltoes -0.23338
1739
root 5.21644 16.3082 -23.7756 527.461 -74.3495 -527.275
lowerback 0.827871 -0.799013 4.40913
upperback -0.68265 -1.02829 2.36443
thorax -1.19849 -0.560579 -0.0237724
lowerneck -4.70296 -2.20583 1.83316
upperneck 23.273 -1.79146 -11.7456
head 7.76186 -2.15853 -4.42369
rclavicle -2.57178e-014 7.15625e-015
rhumerus -19.6876 14.342 -66.1264
rradius 86.326
rwrist 12.8283
rhand -61.5166 10.691
rfingers 7.12502
rthumb -33.5945 -16.1818
lclavicle -2.57178e-014 7.15625e-015
lhumerus -24.4456 -5.31533 76.4213
lradius 95.9229
lwrist 12.5408
lhand -50.2615 -21.3943
lfingers 7.12502
lthumb -22.84 7.27326
rfemur -12.6348 -4.01316 27.7765
rtibia 35.8818
rfoot -28.9456 -14.8609
rtoes 10.9333
lfemur -6.52287 10.335 -17.3272
ltibia 28.4891
lfoot -21.7063 12.8493
ltoes -0.181803
1740
root 5.20588 16.3083 -23.7623 527.49 -74.25 -527.304
lowerback 0.816163 -0.786137 4.41479
upperback -0.702866 -1.01148 2.38726
thorax -1.21181 -0.552919 -0.00378166
lowerneck -4.60764 -2.21165 1.87943
upperneck 22.9411 -1.82154 -11.6856
head 7.63147 -2.1438 -4.39488
rclavicle 1.52319e-014 1.98785e-014
rhumerus -19.7355 14.0492 -66.286
rradius 86.4777
rwrist 12.8445
rhand -61.5018 10.7193
rfingers 7.12502
rthumb -33.5804 -16.1566
lclavicle 1.52319e-014 1.98785e-014
lhumerus -24.5598 -5.32359 76.5817
lradius 96.0184
lwrist 12.533
lhand -50.2885 -21.4482
lfingers 7.12502
lthumb -22.8659 7.21621
rfemur -12.6309 -3.87216 27.7463
rtibia 35.914
rfoot -28.9522 -14.9416
rtoes 10.8404
lfemur -6.46154 10.3184 -17.3836
ltibia 28.4552
lfoot -21.7592 12.9604
ltoes -0.120454
